Coordinates
version=1
nRows=17
nColumns=24
inDegrees=yes

Units are S.I. units (second, meters, Newtons, ...)
Angles are in degrees.

endheader
time	pelvis_tilt	pelvis_list	pelvis_rotation	pelvis_tx	pelvis_ty	pelvis_tz	hip_flexion_r	hip_adduction_r	hip_rotation_r	knee_angle_r	ankle_angle_r	subtalar_angle_r	mtp_angle_r	hip_flexion_l	hip_adduction_l	hip_rotation_l	knee_angle_l	ankle_angle_l	subtalar_angle_l	mtp_angle_l	lumbar_extension	lumbar_bending	lumbar_rotation
      1.20016667	     -7.59419815	     -2.09299191	     -6.50971711	      0.07767198	      1.01720517	      0.34019215	    -10.14166605	      3.24163666	      0.99752942	    -10.76508500	     20.55440910	      4.21903000	      4.52844177	     36.12144250	     -5.91311004	     -2.42028071	     -7.50384426	      9.01917871	      5.77454422	      4.73971939	     -2.86675120	      6.22322660	      4.03989473
      1.20433333	     -7.59168757	     -2.01529841	     -6.60319146	      0.08400102	      1.01667138	      0.33973692	    -10.27229190	      3.03449465	      0.85663596	    -11.22396235	     20.42131739	      4.56091949	      4.82428164	     36.07859355	     -5.78259039	     -2.21864520	     -8.07519396	      8.69698515	      5.68482049	      4.85075318	     -2.80315676	      6.06306887	      4.09730268
      1.20850000	     -7.59761700	     -1.93133151	     -6.69997118	      0.09035947	      1.01617621	      0.33927811	    -10.37722000	      2.81794785	      0.71606147	    -11.71433354	     20.26346188	      4.87913934	      5.22884182	     36.04404052	     -5.65004662	     -2.04517959	     -8.65291265	      8.32862778	      5.55507533	      4.98798320	     -2.71995961	      5.90575996	      4.15137723
      1.21266667	     -7.57109602	     -1.85495467	     -6.77062557	      0.09675495	      1.01579896	      0.33876824	    -10.53221138	      2.61116700	      0.61871348	    -12.16223137	     19.90648766	      5.02837870	      8.10915523	     35.96081323	     -5.50306729	     -1.80474098	     -9.19623727	      7.90732281	      5.33605721	      5.89062455	     -2.68246490	      5.75922929	      4.11375710
      1.21683333	     -7.60979885	     -1.76048313	     -6.88117358	      0.10317980	      1.01537032	      0.33832593	    -10.56944275	      2.38275129	      0.52435424	    -12.71289124	     19.69971094	      5.31425059	      8.19632928	     35.97361875	     -5.38394942	     -1.78101699	     -9.81307387	      7.47830514	      5.32398098	      5.89618595	     -2.54533721	      5.58575139	      4.20951872
      1.22100000	     -7.59808672	     -1.65439666	     -6.96536797	      0.10962143	      1.01507558	      0.33781627	    -10.64831728	      2.13260142	      0.37577780	    -13.27989842	     19.43230975	      5.64174002	      8.36042351	     35.91828967	     -5.22840710	     -1.67261845	    -10.39133288	      7.01077931	      5.15261624	      5.90690004	     -2.47371150	      5.39404098	      4.24722852
      1.22516667	     -7.59148702	     -1.55286144	     -7.04745740	      0.11606004	      1.01483304	      0.33727300	    -10.69506494	      1.88426423	      0.22200430	    -13.89524514	     19.11408673	      5.95696492	      8.65816621	     35.87036242	     -5.07633066	     -1.55206847	    -10.97140835	      6.52343768	      4.93838213	      5.92586568	     -2.40155676	      5.21942658	      4.27529046
      1.22933333	     -7.58164253	     -1.45639482	     -7.12361941	      0.12255795	      1.01467090	      0.33676349	    -10.76305314	      1.65308053	      0.17060230	    -14.46682613	     18.66644737	      6.05881176	      8.73979689	     35.84228659	     -4.94188099	     -1.55182382	    -11.60744458	      6.06455161	      4.85866279	      5.92314788	     -2.29925943	      5.05162698	      4.26515420
      1.23350000	     -7.60773297	     -1.33095622	     -7.18130810	      0.12904000	      1.01448327	      0.33614735	    -10.73225150	      1.37900226	     -0.01525457	    -15.14656654	     18.23663008	      6.34408703	     12.51749387	     35.83683549	     -4.75375343	     -1.37285770	    -12.20020227	      5.52685677	      4.45071885	      6.08282430	     -2.18207960	      4.83941109	      4.26686848
      1.23766667	     -7.58561271	     -1.19320348	     -7.25258968	      0.13554929	      1.01444078	      0.33557169	    -10.73181091	      1.08317232	     -0.17865531	    -15.86603522	     17.82863730	      6.65385886	     12.60122917	     35.80741759	     -4.57941407	     -1.40219022	    -12.86337205	      5.09595894	      4.31909380	      6.07036875	     -2.10214947	      4.60694007	      4.30354523
      1.24183333	     -7.59270475	     -1.05833011	     -7.31039653	      0.14206542	      1.01441021	      0.33495242	    -10.67713312	      0.79548472	     -0.33451680	    -16.62573054	     17.35980208	      6.91647102	     12.76734090	     35.80955418	     -4.39908828	     -1.36405688	    -13.52523948	      4.65573634	      4.08138698	      6.04978224	     -1.98478339	      4.38903456	      4.30976525
      1.24600000	     -7.58488726	     -0.91360239	     -7.35991083	      0.14857645	      1.01446049	      0.33430083	    -10.60697711	      0.49162196	     -0.50926743	    -17.43607862	     16.86077918	      7.20673264	     13.07421152	     35.79797562	     -4.20329269	     -1.31944582	    -14.19272996	      4.23999733	      3.82204935	      6.01470013	     -1.88869759	      4.15810032	      4.31082184
      1.25016667	     -7.50583583	     -0.75942332	     -7.39813127	      0.15508768	      1.01469731	      0.33363516	    -10.60624952	      0.17372583	     -0.64645164	    -18.23621049	     16.20730618	      7.32797301	     16.17145093	     35.70330648	     -3.98396607	     -1.26019411	    -14.84704255	      3.85317105	      3.49303205	      5.69953035	     -1.88480774	      3.89872296	      4.27013621
      1.25433333	     -7.52065578	     -0.63229958	     -7.42683196	      0.16160958	      1.01480970	      0.33295481	    -10.47090153	     -0.10140263	     -0.78526383	    -19.11253574	     15.57409282	      7.51938884	     16.22902725	     35.74808588	     -3.81178907	     -1.29164039	    -15.58768035	      3.56121095	      3.45641264	      5.68614680	     -1.75338983	      3.68648217	      4.26003203
      1.25850000	     -7.49133290	     -0.47554175	     -7.45436506	      0.16809388	      1.01502386	      0.33220576	    -10.32329884	     -0.43239977	     -1.00888936	    -20.09561418	     15.01727088	      7.85123015	     16.49563250	     35.73511418	     -3.59382493	     -1.28025488	    -16.30761627	      3.29453199	      3.21720714	      5.63971145	     -1.68208689	      3.45481371	      4.26319666
      1.26266667	     -7.47335660	     -0.30244716	     -7.46308466	      0.17459955	      1.01527766	      0.33145487	    -10.14233104	     -0.77032110	     -1.21037875	    -21.10970889	     14.38528676	      8.03983359	     16.78392038	     35.72140274	     -3.35458031	     -1.26488012	    -16.99505410	      3.02669980	      3.05295394	      5.58671127	     -1.58261237	      3.18571498	      4.23655070
      1.26683333	     -7.39510841	     -0.16549592	     -7.46441150	      0.18108018	      1.01569058	      0.33071608	    -10.02740289	     -1.06458584	     -1.33237038	    -22.10318772	     13.60228096	      8.09894566	     16.87143154	     35.65240955	     -3.14699759	     -1.29178803	    -17.71306713	      2.86869838	      2.95417339	      5.56737926	     -1.56483752	      2.96353604	      4.19741714
